<?xml version="1.0" encoding="UTF-8" standalone="no"?>

<svg width="150.00002" height="150" 
   xmlns:dc="http://purl.org/dc/elements/1.1/"
   xmlns:cc="http://creativecommons.org/ns#"
   xmlns:rdf="http://www.w3.org/1999/02/22-rdf-syntax-ns#"
   xmlns:svg="http://www.w3.org/2000/svg"
   xmlns="http://www.w3.org/2000/svg"
   xmlns:sodipodi="http://sodipodi.sourceforge.net/DTD/sodipodi-0.dtd"
   xmlns:inkscape="http://www.inkscape.org/namespaces/inkscape"
 xml:space="preserve" enable-background="new 0 0 196.6 72" version="1.1">
 <metadata id="metadata20">image/svg+xml</metadata>

 <g>
  <title>Layer 1</title>
  <rect fill="#ffffff" fill-rule="evenodd" stroke-width="0.1" stroke-miterlimit="4" y="-0.00001" height="150.00002" width="150.00002" id="rect4145"/>
  <path clip-rule="nonzero" fill="#0082c9" fill-rule="nonzero" stroke-width="5.5659" stroke-miterlimit="10" stroke-dashoffset="0"  id="XMLID_107_" d="m75.75608,37.28771c-11.80525,0 -21.81118,8.00318 -24.91235,18.84659c-2.69524,-5.75151 -8.53592,-9.78092 -15.26337,-9.78092c-9.25183,0 -16.85708,7.60525 -16.85708,16.85707c0,9.25183 7.60525,16.86055 16.85708,16.86055c6.72745,0 12.56813,-4.03188 15.26337,-9.7844c3.10117,10.84423 13.1071,18.85007 24.91235,18.85007c11.71795,0 21.67286,-7.8851 24.85334,-18.60702c2.74505,5.62193 8.51344,9.54135 15.14533,9.54135c9.25183,0 16.86055,-7.60872 16.86055,-16.86055c0,-9.25182 -7.60872,-16.85707 -16.86055,-16.85707c-6.63189,0 -12.40028,3.91696 -15.14533,9.53787c-3.18048,-10.72108 -13.13539,-18.60354 -24.85334,-18.60354zm0,9.8955c8.91163,0 16.03073,7.11564 16.03073,16.02724c0,8.9116 -7.1191,16.03072 -16.03073,16.03072c-8.91158,0 -16.02722,-7.11912 -16.02722,-16.03072c0,-8.9116 7.11564,-16.02724 16.02722,-16.02724zm-40.17572,9.06567c3.90437,0 6.96504,3.05719 6.96504,6.96157c0,3.90439 -3.06067,6.96505 -6.96504,6.96505c-3.90439,0 -6.96158,-3.06066 -6.96158,-6.96505c0,-3.90438 3.05719,-6.96157 6.96158,-6.96157zm80.17439,0c3.9044,0 6.96504,3.05719 6.96504,6.96157c0,3.90439 -3.06066,6.96505 -6.96504,6.96505c-3.90437,0 -6.96156,-3.06066 -6.96156,-6.96505c0,-3.90438 3.05721,-6.96157 6.96156,-6.96157z"/>
  <g fill="#0082c9" transform="matrix(0.47038519,0,0,0.47038519,30.11248,78.047337)" id="g4571">
   <path fill="#0082c9"  d="m37.66967,48.9c5.9,0 9.2,4.2 9.2,10.5c0,0.6 -0.5,1.1 -1.1,1.1l-15.9,0c0.1,5.6 4,8.8 8.5,8.8c2.8,0 4.8,-1.2 5.8,-2c0.6,-0.4 1.1,-0.3 1.4,0.3l0.3,0.5c0.3,0.5 0.2,1 -0.3,1.4c-1.2,0.9 -3.8,2.4 -7.3,2.4c-6.5,0 -11.5,-4.7 -11.5,-11.5c0.1,-7.2 4.9,-11.5 10.9,-11.5zm6.1,9.4c-0.2,-4.6 -3,-6.9 -6.2,-6.9c-3.7,0 -6.9,2.4 -7.6,6.9l13.8,0z" id="XMLID_121_"/>
   <path fill="#0082c9"  d="m76.9,52.1l0,-2.5l0,-5.2c0,-0.7 0.4,-1.1 1.1,-1.1l0.8,0c0.7,0 1,0.4 1,1.1l0,5.2l4.5,0c0.7,0 1.1,0.4 1.1,1.1l0,0.3c0,0.7 -0.4,1 -1.1,1l-4.5,0l0,11c0,5.1 3.1,5.7 4.8,5.8c0.9,0.1 1.2,0.3 1.2,1.1l0,0.6c0,0.7 -0.3,1 -1.2,1c-4.8,0 -7.7,-2.9 -7.7,-8.1l0,-11.3z" id="XMLID_119_"/>
   <path fill="#0082c9"  d="m99.8,48.9c3.8,0 6.2,1.6 7.3,2.5c0.5,0.4 0.6,0.9 0.1,1.5l-0.3,0.5c-0.4,0.6 -0.9,0.6 -1.5,0.2c-1,-0.7 -2.9,-2 -5.5,-2c-4.8,0 -8.6,3.6 -8.6,8.9c0,5.2 3.8,8.8 8.6,8.8c3.1,0 5.2,-1.4 6.2,-2.3c0.6,-0.4 1,-0.3 1.4,0.3l0.3,0.4c0.3,0.6 0.2,1 -0.3,1.5c-1.1,0.9 -3.8,2.8 -7.8,2.8c-6.5,0 -11.5,-4.7 -11.5,-11.5c0.1,-6.8 5.1,-11.6 11.6,-11.6z" id="XMLID_117_"/>
   <path fill="#0082c9"  d="m113.1,41.8c0,-0.7 -0.4,-1.1 0.3,-1.1l0.8,0c0.7,0 1.8,0.4 1.8,1.1l0,23.9c0,2.8 1.3,3.1 2.3,3.2c0.5,0 0.9,0.3 0.9,1l0,0.7c0,0.7 -0.3,1.1 -1.1,1.1c-1.8,0 -5,-0.6 -5,-5.4l0,-24.5z" id="XMLID_115_"/>
   <path fill="#0082c9"  d="m133.6,48.9c6.4,0 11.6,4.9 11.6,11.4c0,6.6 -5.2,11.6 -11.6,11.6c-6.4,0 -11.6,-5 -11.6,-11.6c0,-6.5 5.2,-11.4 11.6,-11.4zm0,20.4c4.7,0 8.5,-3.8 8.5,-9c0,-5 -3.8,-8.7 -8.5,-8.7c-4.7,0 -8.6,3.8 -8.6,8.7c0.1,5.1 3.9,9 8.6,9z" id="XMLID_112_"/>
   <path fill="#0082c9"  d="m183.5,48.9c5.3,0 7.2,4.4 7.2,4.4l0.1,0c0,0 -0.1,-0.7 -0.1,-1.7l0,-9.9c0,-0.7 -0.3,-1.1 0.4,-1.1l0.8,0c0.7,0 1.8,0.4 1.8,1.1l0,28.5c0,0.7 -0.3,1.1 -1,1.1l-0.7,0c-0.7,0 -1.1,-0.3 -1.1,-1l0,-1.7c0,-0.8 0.2,-1.4 0.2,-1.4l-0.1,0c0,0 -1.9,4.6 -7.6,4.6c-5.9,0 -9.6,-4.7 -9.6,-11.5c-0.2,-6.8 3.9,-11.4 9.7,-11.4zm0.1,20.4c3.7,0 7.1,-2.6 7.1,-8.9c0,-4.5 -2.3,-8.8 -7,-8.8c-3.9,0 -7.1,3.2 -7.1,8.8c0.1,5.4 2.9,8.9 7,8.9z" id="XMLID_109_"/>
   <path fill="#0082c9" id="XMLID_103_" d="m1,71.4l0.8,0c0.7,0 1.1,-0.4 1.1,-1.1l0,-21.47233c0,-3.40001 3.7,-5.82767 7.9,-5.82767c4.2,0 7.9,2.42766 7.9,5.82766l0,21.47234c0,0.7 0.4,1.1 1.1,1.1l0.8,0c0.7,0 1,-0.4 1,-1.1l0,-21.6c0,-5.7 -5.7,-8.5 -10.9,-8.5l0,0l0,0l0,0l0,0c-5,0 -10.7,2.8 -10.7,8.5l0,21.6c0,0.7 0.3,1.1 1,1.1z"  />
   <path fill="#0082c9" id="XMLID_102_" d="m167.9,49.4l-0.8,0c-0.7,0 -1.1,0.4 -1.1,1.1l0,12.1c0,3.4 -2.2,6.5 -6.5,6.5c-4.2,0 -6.5,-3.1 -6.5,-6.5l0,-12.1c0,-0.7 -0.4,-1.1 -1.1,-1.1l-0.8,0c-0.7,0 -1,0.4 -1,1.1l0,12.9c0,5.7 4.2,8.5 9.4,8.5l0,0c0,0 0,0 0,0c0,0 0,0 0,0l0,0c5.2,0 9.4,-2.8 9.4,-8.5l0,-12.9c0.1,-0.7 -0.3,-1.1 -1,-1.1z" />
   <path fill="#0082c9" d="m68.9082,49.23594c-0.24494,0.0391 -0.4801,0.20259 -0.70507,0.4707l-4.04688,4.82422l-3.0293,3.60937l-4.58593,-5.46679l-2.48829,-2.9668c-0.22497,-0.26812 -0.47974,-0.41472 -0.74414,-0.4375c-0.26439,-0.02278 -0.53852,0.07775 -0.80664,0.30273l-0.61328,0.51368c-0.53623,0.44995 -0.50854,0.94814 -0.05859,1.48437l4.04883,4.82422l3.35742,4l-4.91601,5.85742c-0.0037,0.0044 -0.0061,0.0093 -0.0098,0.01367l-2.48047,2.95508c-0.44996,0.53623 -0.39953,1.10083 0.13672,1.55078l0.61328,0.51172c0.53623,0.44995 1.0227,0.33701 1.47265,-0.19922l4.04688,-4.82422l3.0293,-3.60937l4.58593,5.46679c0.003,0.00361 0.0067,0.00621 0.0098,0.0098l2.48047,2.95704c0.44995,0.53623 1.0126,0.58473 1.54883,0.13476l0.61328,-0.51367c0.53623,-0.44995 0.50855,-0.94814 0.05859,-1.48438l-4.04883,-4.82421l-3.35742,-4l4.91602,-5.85743c0.0037,-0.0044 0.0061,-0.0093 0.0098,-0.01367l2.48047,-2.95507c0.44995,-0.53623 0.39953,-1.10083 -0.13672,-1.55078l-0.61328,-0.51368c-0.26812,-0.22497 -0.52264,-0.30863 -0.76758,-0.26953l-0.00004,-0.00003z" id="path4165-9" />
  </g>
  <text transform="matrix(0.61372 0 0 0.458914 27.1806 64.112)" stroke="#000" xml:space="preserve" text-anchor="start" font-family="Noto Sans JP" font-size="24" id="svg_1" y="132.2" x="38.73335" stroke-width="0" fill="#000000">dugong</text>
  <text font-weight="bold" xml:space="preserve" text-anchor="start" font-family="Noto Sans JP" font-size="24" id="svg_2" y="72.2" x="67.26668" stroke-width="0" stroke="#000" fill="#00ff00">A</text>
 </g>
</svg>